/* XPM */
static char * circle_xpm[] = {
"32 32 249 2",
"  	c None",
". 	c #818999",
"+ 	c #8C95A6",
"@ 	c #838B9B",
"# 	c #7E8696",
"$ 	c #828A9A",
"% 	c #838B9C",
"& 	c #BDC8DD",
"* 	c #9099AA",
"= 	c #7C8494",
"- 	c #8890A1",
"; 	c #ABB5C9",
"> 	c #AFB9CD",
", 	c #8790A1",
"' 	c #BCC6DB",
") 	c #B4BFD6",
"! 	c #9099AB",
"~ 	c #949DAF",
"{ 	c #ACB6C9",
"] 	c #868E9F",
"^ 	c #BAC5DA",
"/ 	c #B9C3D8",
"( 	c #A5AFC2",
"_ 	c #AEB8CC",
": 	c #B9C3D9",
"< 	c #B2BDD4",
"[ 	c #B7C1D7",
"} 	c #B5BFD4",
"| 	c #9DA7B9",
"1 	c #8B93A5",
"2 	c #B5C0D5",
"3 	c #BAC4D9",
"4 	c #B8C3D7",
"5 	c #7C8493",
"6 	c #B6C1D4",
"7 	c #B1BDD3",
"8 	c #B0BCD2",
"9 	c #B6C1D6",
"0 	c #B3BFD4",
"a 	c #B2BDD3",
"b 	c #B9C4D8",
"c 	c #B3BED4",
"d 	c #B0BACD",
"e 	c #79808F",
"f 	c #787F8E",
"g 	c #747B8A",
"h 	c #777E8E",
"i 	c #B1BDD2",
"j 	c #AEBAD0",
"k 	c #A9B4CA",
"l 	c #949EB1",
"m 	c #828A9B",
"n 	c #767E8D",
"o 	c #B7C2D6",
"p 	c #959EB0",
"q 	c #717886",
"r 	c #A3ADBF",
"s 	c #A4ADC0",
"t 	c #7F8696",
"u 	c #B6C0D4",
"v 	c #ABB6CC",
"w 	c #8A93A4",
"x 	c #6A717F",
"y 	c #808898",
"z 	c #919AAD",
"A 	c #9CA6B9",
"B 	c #AFBACF",
"C 	c #B2BCCF",
"D 	c #7D8594",
"E 	c #818998",
"F 	c #737A88",
"G 	c #878FA1",
"H 	c #B4BED3",
"I 	c #B2BDD1",
"J 	c #A6B0C6",
"K 	c #798191",
"L 	c #B3BDD2",
"M 	c #ADB6CB",
"N 	c #9EA7BA",
"O 	c #8F98AA",
"P 	c #6F7685",
"Q 	c #6E7583",
"R 	c #A3ACBE",
"S 	c #B3BDD0",
"T 	c #A9B4C9",
"U 	c #A8B3C7",
"V 	c #8C95A7",
"W 	c #ADB8CC",
"X 	c #ABB6CB",
"Y 	c #AFBACE",
"Z 	c #B0BACC",
"` 	c #757D8B",
" .	c #979FB0",
"..	c #AFB8CD",
"+.	c #A7B1C7",
"@.	c #8A93A5",
"#.	c #A8B2C8",
"$.	c #B1BACE",
"%.	c #A5AEC1",
"&.	c #878FA0",
"*.	c #7A8190",
"=.	c #A0A9BB",
"-.	c #767D8C",
";.	c #AFB8CC",
">.	c #A1ABBF",
",.	c #7C8393",
"'.	c #A2ACC1",
").	c #A5AFC4",
"!.	c #9199AA",
"~.	c #6D7482",
"{.	c #8F98A9",
"].	c #ADB6CA",
"^.	c #959DAF",
"/.	c #6C7381",
"(.	c #6B7280",
"_.	c #ACB7CA",
":.	c #949DB0",
"<.	c #8D97A9",
"[.	c #A2ADC2",
"}.	c #A7B2C6",
"|.	c #9DA8B9",
"1.	c #9CA6B8",
"2.	c #99A3B4",
"3.	c #8B94A4",
"4.	c #9FAABB",
"5.	c #A4AEC2",
"6.	c #8E97A9",
"7.	c #97A1B4",
"8.	c #A0ABBF",
"9.	c #AAB5C7",
"0.	c #A2ADC0",
"a.	c #A5B0C2",
"b.	c #777F8D",
"c.	c #737B89",
"d.	c #69707D",
"e.	c #A1AABD",
"f.	c #A8B2C5",
"g.	c #A2ACC0",
"h.	c #9EA8BD",
"i.	c #99A3B7",
"j.	c #A9B2C6",
"k.	c #747C8A",
"l.	c #727987",
"m.	c #A6B0C4",
"n.	c #686F7C",
"o.	c #A0A8BB",
"p.	c #A0A9BD",
"q.	c #9CA6BA",
"r.	c #929BAE",
"s.	c #99A3B6",
"t.	c #A7B0C3",
"u.	c #737A89",
"v.	c #6F7784",
"w.	c #676E7B",
"x.	c #8F98A8",
"y.	c #9CA5B5",
"z.	c #A5AFC0",
"A.	c #9EA8BA",
"B.	c #959FB2",
"C.	c #98A2B5",
"D.	c #9AA4B7",
"E.	c #7D8593",
"F.	c #6E7683",
"G.	c #666D7A",
"H.	c #808897",
"I.	c #A3ACBF",
"J.	c #97A1B5",
"K.	c #9DA6BA",
"L.	c #9DA7BA",
"M.	c #9FA9BC",
"N.	c #8E97A7",
"O.	c #6F7684",
"P.	c #9EA7B9",
"Q.	c #939CAF",
"R.	c #9CA6BB",
"S.	c #868E9E",
"T.	c #666D7B",
"U.	c #848C9C",
"V.	c #676D7A",
"W.	c #818897",
"X.	c #97A0B1",
"Y.	c #8B94A6",
"Z.	c #97A0B4",
"`.	c #98A0B2",
" +	c #8F97A8",
".+	c #969EB0",
"++	c #848B9B",
"@+	c #686E7B",
"#+	c #656B78",
"$+	c #8A92A2",
"%+	c #939BAC",
"&+	c #868FA0",
"*+	c #858E9F",
"=+	c #9FA9BD",
"-+	c #939DB0",
";+	c #8890A0",
">+	c #646A77",
",+	c #8D96A6",
"'+	c #8A93A3",
")+	c #848E9E",
"!+	c #A1ACC0",
"~+	c #7F8999",
"{+	c #7F8898",
"]+	c #868F9F",
"^+	c #8C95A5",
"/+	c #626976",
"(+	c #828998",
"_+	c #838A99",
":+	c #6A717E",
"<+	c #7C8391",
"[+	c #8991A0",
"}+	c #7C8495",
"|+	c #AAB5CB",
"1+	c #848C9E",
"2+	c #777F8C",
"3+	c #7B8391",
"4+	c #626975",
"5+	c #666C79",
"6+	c #636975",
"7+	c #626874",
"8+	c #79808E",
"9+	c #7D8696",
"0+	c #A0AABE",
"a+	c #A3ADC2",
"b+	c #7E8695",
"c+	c #656B77",
"d+	c #626875",
"e+	c #7D8392",
"f+	c #757C8B",
"g+	c #7B8291",
"h+	c #7E8593",
"i+	c #616774",
"j+	c #707684",
"k+	c #7A808F",
"l+	c #7E8493",
"m+	c #727886",
"n+	c #7F8695",
"o+	c #696F7C",
"p+	c #606672",
"q+	c #717785",
"r+	c #6E7582",
"s+	c #777D8B",
"t+	c #7E8594",
"u+	c #6D7380",
"v+	c #7B8290",
"w+	c #676E7A",
"x+	c #5F6572",
"y+	c #676D7B",
"z+	c #5F6571",
"                                                                ",
"                                                                ",
"                            . + + + @                           ",
"                    # $     % & & & *       #                   ",
"                = - ; > = = , ' ) ' ! = = ~ { ] =               ",
"                ! ^ / ^ ( _ ^ : < [ } | 1 2 3 4 -               ",
"                5 6 7 8 9 0 8 8 8 8 a 4 b 9 c d e               ",
"          f g   h { i j k l m n n m l k j j o p g               ",
"        q r s t s u v w x y z A A z y x w v B C D q E F         ",
"        G H I H I J K , J v v v v v v J , K J L M N H O P       ",
"      Q R S T T U 5 V T T W S S S S W T T V 5 U X Y X Z `       ",
"        P  ...+.V @.+.#.$.%.&.*.*.&.s $.#.+.@.V +.+.$.=.-.      ",
"          @ ;.>.,.'.).;.!.Q         ~.{.;.).'.,.>.].^./.        ",
"        (.w _.:.<.[.}.|.(.            (.1.}.[.<.:.U 2.(.        ",
"      E 3.4.5.6.7.8.9.E                 E 9.8.7.6.0.a.b.c.x     ",
"    d.e.f.g.h.O i.h.j.k.                l.j.h.i.O h.m.j.j.q     ",
"    n.o.p.q.q.r.s.q.t.u.                q t.q.s.r.q.q.q.t.v.    ",
"    w.x.y.z.A.B.C.D.z.E.                E.z.D.C.B.D.z.z.z.F.    ",
"      G.G.H.I.J.C.J.K.p G.            G.^.L.J.C.J.M.N.G.G.G.    ",
"          O.P.Q.R.r.r.P.S.T.        T.U.P.r.r.R.Q.P.5           ",
"        V.W.X.Y.J.Z.Y.V `. +e O.O.e  +`.V Y.Z.J.Y..+++@+        ",
"      #+$+%+&+*+, =+-+*+*+w %+%+%+%+w *+*+-+=+, &+*+%+;+>+      ",
"        k.,+'+,+'+)+!+B.~+{+{+{+{+{+{+~+B.!+]+^+3.^+,+Q         ",
"        /+(+_+:+<+[+}+J.|+-+G 1+1+G -+|+J.}+[+2+w.(+3+4+        ",
"          5+6+  7+8+E n 9+z 0+a+a+0+z 9+n b+<+7+  6+c+          ",
"                d+e+e f+(+g+g u.u.f (+_+-.f h+i+                ",
"                j+_+e W.l.k+(+g *.l+l.m+_+n+_+o+                ",
"                p+q+(+r+p+p+s+t+_+u+p+p+v+<+w+p+                ",
"                  x+#+x+  x+f _+_+y+    d+x+                    ",
"                            z+z+z+z+                            ",
"                                                                ",
"                                                                "};
