/* XPM */
static char * chessboard_icon_xpm[] = {
"32 32 113 2",
"  	c #010101",
". 	c #000000",
"+ 	c #020202",
"@ 	c #050505",
"# 	c #030303",
"$ 	c #060606",
"% 	c #161616",
"& 	c #303030",
"* 	c #2E2E2E",
"= 	c #2B2B2B",
"- 	c #313131",
"; 	c #2D2D2D",
"> 	c #353535",
", 	c #373737",
"' 	c #393939",
") 	c #333333",
"! 	c #3A3A3A",
"~ 	c #2F2F2F",
"{ 	c #343434",
"] 	c #141414",
"^ 	c #B8B8B8",
"/ 	c #BFBFBF",
"( 	c #C7C7C7",
"_ 	c #BABABA",
": 	c #C4C4C4",
"< 	c #232323",
"[ 	c #040404",
"} 	c #090909",
"| 	c #777777",
"1 	c #BDBDBD",
"2 	c #B5B5B5",
"3 	c #C0C0C0",
"4 	c #767676",
"5 	c #0B0B0B",
"6 	c #C3C3C3",
"7 	c #BBBBBB",
"8 	c #C1C1C1",
"9 	c #202020",
"0 	c #787878",
"a 	c #BEBEBE",
"b 	c #757575",
"c 	c #222222",
"d 	c #C2C2C2",
"e 	c #2C2C2C",
"f 	c #BCBCBC",
"g 	c #C5C5C5",
"h 	c #797979",
"i 	c #C6C6C6",
"j 	c #C8C8C8",
"k 	c #1E1E1E",
"l 	c #363636",
"m 	c #212121",
"n 	c #8B8B8B",
"o 	c #9C9C9C",
"p 	c #A5A5A5",
"q 	c #A1A1A1",
"r 	c #4D4D4D",
"s 	c #262626",
"t 	c #565656",
"u 	c #999999",
"v 	c #A0A0A0",
"w 	c #A7A7A7",
"x 	c #A2A2A2",
"y 	c #838383",
"z 	c #1F1F1F",
"A 	c #2A2A2A",
"B 	c #9A9A9A",
"C 	c #070707",
"D 	c #464646",
"E 	c #B7B7B7",
"F 	c #383838",
"G 	c #9D9D9D",
"H 	c #4B4B4B",
"I 	c #484848",
"J 	c #3B3B3B",
"K 	c #A4A4A4",
"L 	c #9E9E9E",
"M 	c #494949",
"N 	c #7A7A7A",
"O 	c #4F4F4F",
"P 	c #4C4C4C",
"Q 	c #4A4A4A",
"R 	c #454545",
"S 	c #686868",
"T 	c #727272",
"U 	c #7B7B7B",
"V 	c #616161",
"W 	c #4E4E4E",
"X 	c #474747",
"Y 	c #7C7C7C",
"Z 	c #707070",
"` 	c #717171",
" .	c #B9B9B9",
"..	c #080808",
"+.	c #323232",
"@.	c #747474",
"#.	c #525252",
"$.	c #505050",
"%.	c #636363",
"&.	c #989898",
"*.	c #9F9F9F",
"=.	c #B6B6B6",
"-.	c #252525",
";.	c #898989",
">.	c #9B9B9B",
",.	c #A3A3A3",
"'.	c #979797",
").	c #242424",
"!.	c #282828",
"~.	c #1C1C1C",
"{.	c #737373",
"].	c #C9C9C9",
"^.	c #151515",
"  .   . . . + . @ . .   +   # . . . # . . +     # . . # . . . . ",
". $ . . . . . @ +     # . + . . # $ .     . + # . + .     . . . ",
"#   % & * = - ; > , ' ) ! - ~ = - ; - , ' ) ' { * ~ ) ~ & ] # . ",
". . { ^ / ( _ : < [   } + | 1 ( 2 3 4 @   5 + < 3 1 6 7 _ & + . ",
"  . ; 1 8 1 8 6 9 +   . . 0 a 1 6 3 b +   . . c d 8 a 3 d * . . ",
". # e ( f a 3 3 c .   . # b d a 8 f 0 .   . # 9 g / g a 3 ~ . . ",
"  . & 1 8 a / 6 9 + + +   h 1 / a 3 b # . +   < 8 3 a d / ~ . . ",
"  # ; i 8 i 6 j 9 . . . . 4 d i 6 : 0 . . . . k g 6 d d / ; . . ",
"$ . l < m < m k n o o p q r s c 9 k t u v w x y < z A m c l . . ",
".   l +   . # . B 6 d f a r . . C   D g 3 E 3 v . + . . # F + . ",
"  . ' + +     . G d 1 8 7 H .   . # I 6 1 6 7 q . . .   + J . . ",
". @ l @ .   + . K 7 3 a d I @ . [ . r _ 8 7 6 L   .     @ l   . ",
". . F +   .   . L / : / 6 H   .   . M a 6 / 8 v .   .   # ' . . ",
"[ + - | b b h N O P Q H R S T 4 U U V W M M X t T Y Z 4 b - . . ",
"+ . ~ 8 3 3 3 8 s . . $   ` g 8 ^ a h . . 5   k j 7 i 8 7 & . . ",
". # = i f / / 3 m .   . # b 6 a d 7 0 .   . # 9 i / 6 a 8 * . . ",
"    &  .d 8 8 ( z $ . [ . Y E d 7 g b ... $ . < 1 8 a 3 _ & . . ",
"+ # * : 1 6 a i c   .   . b a 6 / d |   . . . 9 8 3 / / f e . . ",
"# . +.@.4 b N T #.I Q P $.%.h @.0 ` S D P r O W U 4 | 4 4 ) . . ",
"    > +   . # . &.: 8 f a W . . }   D g / 2 8 v . # . . [ , + . ",
". . ' + +   . . *.8 / 8 f Q .   . + M d / d f v . . .     J . . ",
". . { ... . + . w ^ 6 a g I } . $ . W =.6  .i L @ . . . C l   . ",
". # '     .   . L / d a d Q . . . . M / d / 3 *.. . . + + ' . . ",
"@ . > -.9 < 9 -.;.v >.,.'.#.z ).m !.O x >.q >.n ~.).c m c { . . ",
"# . ~ g 6 d g g < . . + . {.( 6 a d h . . $ . k ].8 ( g a & . . ",
". # e 1 / d / 6 9   . . . N a 8 8 / 4 + . .   m 6 3 1 a 3 ; + . ",
". . - a / / / g s . . . . {.3 a 8 d | . . . . c d / 6 a 3 & . . ",
"[ . * 7 d a d 8 9   . . [ h 1 a / 1 0   .   # m d a 6 1 d ; + . ",
"  . +.7 7 i _ 8 -.# + C # 4 a i ^ 1 | [   ..# < 8 / a 6 2 ~ . . ",
"  . ] & ~ e & ; l , J l F - & e +.e { l J > F { & * ; & ~ ^.+ . ",
". @ . .   .   . . + . . .   . .   . . + . . .   . # . .     . . ",
". . . . . . . . . . . . . . . . . . . . . . . . . . . . . . . . "};
