/* XPM */
static char * cross_xpm[] = {
"32 32 238 2",
"  	c None",
". 	c #F8D453",
"+ 	c #F5D356",
"@ 	c #F6D96D",
"# 	c #F8ECB2",
"$ 	c #FAF6DC",
"% 	c #FBFCF1",
"& 	c #FAFBEA",
"* 	c #F8F2CC",
"= 	c #F7E9A8",
"- 	c #F5D96D",
"; 	c #F3D359",
"> 	c #F7E7A6",
", 	c #FDFDF5",
"' 	c #FFFFFF",
") 	c #FFFFFD",
"! 	c #F9F9EA",
"~ 	c #F9FAEA",
"{ 	c #F9F9E5",
"] 	c #F6E49A",
"^ 	c #F0D35F",
"/ 	c #F7F1CB",
"( 	c #F9FAF0",
"_ 	c #EFF2D6",
": 	c #F5F6E1",
"< 	c #F6EFC2",
"[ 	c #EED160",
"} 	c #F5EAB7",
"| 	c #FEFEFC",
"1 	c #FBFBF3",
"2 	c #EBEDC7",
"3 	c #EDEFD0",
"4 	c #F3F4DD",
"5 	c #F4E8AC",
"6 	c #EDD77C",
"7 	c #FEFDF6",
"8 	c #FAFAEB",
"9 	c #ECEDC1",
"0 	c #EBEDC5",
"a 	c #ECEFD0",
"b 	c #F5F6E0",
"c 	c #F9FAE8",
"d 	c #EDD77A",
"e 	c #E8CF67",
"f 	c #F2E7B1",
"g 	c #FFFFFE",
"h 	c #F6F4D0",
"i 	c #F0EFBE",
"j 	c #EFF1D6",
"k 	c #F1E7AF",
"l 	c #E5CE6C",
"m 	c #F8F4D6",
"n 	c #FCFADF",
"o 	c #F6F2BC",
"p 	c #F3F0BD",
"q 	c #EFEEBF",
"r 	c #EBEDC3",
"s 	c #EDEFCF",
"t 	c #F7F8E3",
"u 	c #F6F3D5",
"v 	c #E2CD70",
"w 	c #FAF9E3",
"x 	c #F9F9E8",
"y 	c #FEFEFB",
"z 	c #FEFDEE",
"A 	c #FDF8CA",
"B 	c #FBF5BA",
"C 	c #F8F4BB",
"D 	c #F5F2BC",
"E 	c #ECECC1",
"F 	c #EDEFCD",
"G 	c #F4F6DF",
"H 	c #F8F7E3",
"I 	c #DECC74",
"J 	c #F8F7DE",
"K 	c #F7F7DF",
"L 	c #F1F1CB",
"M 	c #F3F1C7",
"N 	c #F7F4C9",
"O 	c #F9F4BA",
"P 	c #FCF6B9",
"Q 	c #FFF7B8",
"R 	c #F1EFBE",
"S 	c #ECEECC",
"T 	c #F4F5DE",
"U 	c #F9F9E9",
"V 	c #DBCB78",
"W 	c #F5F1D2",
"X 	c #F8F8E2",
"Y 	c #F1F1CD",
"Z 	c #F1F0C0",
"` 	c #FBFAE7",
" .	c #FAF6CA",
"..	c #F7F5CA",
"+.	c #FAFAE9",
"@.	c #EDECC1",
"#.	c #F7F6E1",
"$.	c #D8CA7D",
"%.	c #EFEAC3",
"&.	c #FAFAE5",
"*.	c #F1F2D0",
"=.	c #F0EFC3",
"-.	c #FCFBEF",
";.	c #FBFBEF",
">.	c #FEFEF7",
",.	c #FEFDF0",
"'.	c #FDFCED",
").	c #FBFAF0",
"!.	c #EEEFD0",
"~.	c #F7F8E4",
"{.	c #F1EFD0",
"].	c #E5DFB1",
"^.	c #FBFBE9",
"/.	c #F2F3D5",
"(.	c #EEEFC6",
"_.	c #F9F8E3",
":.	c #F3F2D7",
"<.	c #EDEDC1",
"[.	c #EFEFC9",
"}.	c #F0F0CC",
"|.	c #EDECC3",
"1.	c #F1F1D7",
"2.	c #F7F8E5",
"3.	c #EBECC6",
"4.	c #EFF1D5",
"5.	c #E8E3B9",
"6.	c #D4C981",
"7.	c #D8D198",
"8.	c #F4F5DD",
"9.	c #EEEFCB",
"0.	c #F5F5DC",
"a.	c #F4F5E3",
"b.	c #E7E8BB",
"c.	c #E8E8BB",
"d.	c #E6E7BC",
"e.	c #F3F4E3",
"f.	c #F3F4DC",
"g.	c #EAEDCC",
"h.	c #F2F4DD",
"i.	c #D8D199",
"j.	c #CDC78B",
"k.	c #EEEDD1",
"l.	c #F9F9E6",
"m.	c #EEF1D3",
"n.	c #EFF1D4",
"o.	c #F8F9EF",
"p.	c #E3E5BD",
"q.	c #E3E6BD",
"r.	c #E1E5BD",
"s.	c #F7F8EF",
"t.	c #EEF0D5",
"u.	c #ECEFD4",
"v.	c #F7F9E7",
"w.	c #EDECD0",
"x.	c #D3D0A1",
"y.	c #F2F4DC",
"z.	c #EBEED0",
"A.	c #FCFDFA",
"B.	c #DEE4BF",
"C.	c #DDE3BF",
"D.	c #E9EDD1",
"E.	c #F0F3DE",
"F.	c #D3D0A0",
"G.	c #C6C594",
"H.	c #E8E8CD",
"I.	c #F8F9E9",
"J.	c #EAEFD5",
"K.	c #FDFDFB",
"L.	c #DCE3C7",
"M.	c #D9E1C1",
"N.	c #DAE3C7",
"O.	c #E9EDD6",
"P.	c #E6E7CC",
"Q.	c #C9CBA6",
"R.	c #F7F9E9",
"S.	c #EFF3E0",
"T.	c #F8FAF4",
"U.	c #E0E6D3",
"V.	c #D4DEC3",
"W.	c #D4DDC3",
"X.	c #DFE6D3",
"Y.	c #EFF3E1",
"Z.	c #C8CAA5",
"`.	c #B9C1A5",
" +	c #DDE1CD",
".+	c #F8FAEB",
"++	c #F6F8F1",
"@+	c #E9EEE4",
"#+	c #D7E0CC",
"$+	c #D6E0CD",
"%+	c #E8EEE3",
"&+	c #F8F9EB",
"*+	c #DBE0CD",
"=+	c #BECABB",
"-+	c #F7F9ED",
";+	c #FAFCF4",
">+	c #F4F7F2",
",+	c #E2E9DC",
"'+	c #FAFCF5",
")+	c #BDC9BA",
"!+	c #A3A589",
"~+	c #BFCCC7",
"{+	c #EAEEE8",
"]+	c #FBFCF9",
"^+	c #EDF2E8",
"/+	c #E9EEE8",
"(+	c #BECCC8",
"_+	c #916401",
":+	c #CCB544",
"<+	c #B1B592",
"[+	c #939796",
"}+	c #AFAF91",
"|+	c #C19C42",
"1+	c #D2A405",
"2+	c #E5B405",
"3+	c #E3AF04",
"4+	c #E1A903",
"5+	c #DEA202",
"6+	c #DB9B02",
"7+	c #D89602",
"8+	c #C58702",
"9+	c #C39504",
"0+	c #ECC849",
"a+	c #E3B246",
"b+	c #BA7F02",
"c+	c #B58803",
"d+	c #EBC548",
"e+	c #E9C047",
"f+	c #E7BB46",
"g+	c #E5B646",
"h+	c #AE7701",
"i+	c #A67902",
"j+	c #A26F01",
"k+	c #986B01",
"l+	c #976801",
"m+	c #AD7E02",
"n+	c #B5824A",
"o+	c #A97501",
"                                                                ",
"                          . . . . . .                           ",
"                      + @ # $ % & * = - +                       ",
"                    ; > , ' ' ' ) ! ~ { ] ;                     ",
"                  ^ / ) ' ' ' ' ' ( _ : ~ < ^                   ",
"                [ } | ' ' ' ' ' ' 1 2 3 4 ~ 5 [                 ",
"                6 7 ' ' ' ' ' ' ' 8 9 0 a b c d                 ",
"              e f g ' ' ' ' ' ' ' h i 9 2 j ~ k e               ",
"              l m g ' ' ' ' ' ' n o p q r s t u l               ",
"              v w x y ' ' ' z A B C D i E F G H v               ",
"              I J K L M N O P Q P O D R 9 S T U I               ",
"              V W X Y Z `  .B P B C ..+.@.F b #.V               ",
"              $.%.&.*.=.-.;.>.,.'.7 ).;.r !.~.{.$.              ",
"                ].^./.(._.:.<.[.}.|.1.2.3.4.~ 5.6.              ",
"                7.^.8.9.0.a.b.c.b.d.e.f.g.h.~ i.                ",
"                j.k.l.m.n.o.p.q.p.r.s.t.u.v.w.j.                ",
"                  x.~ y.z.A.B.B.B.C.A.D.E.~ F.                  ",
"                  G.H.I.J.K.L.M.M.N.K.O.I.P.G.                  ",
"                    Q.R.S.T.U.V.W.X.T.Y.R.Z.                    ",
"                    `. +.+++@+#+$+%+++&+*+`.                    ",
"                      =+-+;+>+,+,+>+'+-+)+                      ",
"                      !+~+{+]+^+^+]+/+(+!+                      ",
"                      _+:+<+[+[+[+[+}+|+_+                      ",
"                      _+1+2+3+4+5+6+7+8+_+                      ",
"                      _+9+0+3+4+5+6+a+b+_+                      ",
"                        c+2+d+e+f+g+7+h+                        ",
"                        i+0+3+4+5+6+a+j+                        ",
"                        k+2+d+e+f+g+7+l+                        ",
"                        _+m+n+n+n+n+o+_+                        ",
"                            _+_+_+_+                            ",
"                                                                ",
"                                                                "};
