/* XPM */
static char * hexagon_xpm[] = {
"32 32 54 1",
" 	c None",
".	c #3274BA",
"+	c #174E95",
"@	c #3273BA",
"#	c #6FA8D7",
"$	c #86BADF",
"%	c #3475BB",
"&	c #2F6FB6",
"*	c #5297D0",
"=	c #77B1DD",
"-	c #3374BA",
";	c #3476BC",
">	c #1A58A8",
",	c #3172B9",
"'	c #3577BC",
")	c #3375BB",
"!	c #3577BD",
"~	c #3778BE",
"{	c #3576BC",
"]	c #3D3E3F",
"^	c #397BBF",
"/	c #71767C",
"(	c #9E9E9E",
"_	c #3D3E3E",
":	c #32373D",
"<	c #585858",
"[	c #808080",
"}	c #3D3D3E",
"|	c #181818",
"1	c #343434",
"2	c #518CBD",
"3	c #3D3D3D",
"4	c #518EC0",
"5	c #559CD7",
"6	c #528FC1",
"7	c #528FC2",
"8	c #3779BE",
"9	c #3D80C3",
"0	c #3678BD",
"a	c #518DBF",
"b	c #3A76B3",
"c	c #387ABF",
"d	c #3B7DC1",
"e	c #3A7CC0",
"f	c #3374BB",
"g	c #397CC0",
"h	c #3E79B4",
"i	c #3B7EC1",
"j	c #3677BD",
"k	c #3873B0",
"l	c #3B7EC2",
"m	c #3E3E3E",
"n	c #7A7A7A",
"o	c #353535",
"                                ",
"               .                ",
"    ++         @                ",
"   +#$+       %.                ",
"  +&*=$+   %--  ;               ",
"  +>,*=$+    '  ))!             ",
"   +>,*=$+    %~                ",
"    +>,*=$+   {                 ",
"     +>,*#+]  ^                 ",
"      +>&+/(_                   ",
"       ++:<[(_                  ",
"        }|1<[(}2                ",
"         3|1<[(}455             ",
"          3|1<[(}655            ",
"           3|1<[(}755  8        ",
"      {    23|1<[(}65 90        ",
"     0%     a3|1<[(}bcded       ",
"   -f cg    563|1<[(}h9i!j      ",
"    { c{0   5573|1<[(}kl        ",
"     f8      5563|1<[(}         ",
"     )        5543|1<[(_        ",
"                 23|1<[(_       ",
"                   3|1<[(_      ",
"                    3|1<[(m     ",
"                     3|1<[(m    ",
"                      3|1<[(m   ",
"                       3|1<[(m  ",
"                        3|1<n3  ",
"                         3|o3   ",
"                          33    ",
"                                ",
"                                "};
