/* XPM */
static char * triangle_xpm[] = {
"32 32 248 2",
"  	c None",
". 	c #772F31",
"+ 	c #003054",
"@ 	c #2189CF",
"# 	c #1E82C7",
"$ 	c #1E81C6",
"% 	c #1E80C5",
"& 	c #873B3E",
"* 	c #A82715",
"= 	c #3F628F",
"- 	c #1C78BC",
"; 	c #1B79BD",
"> 	c #1B78BC",
", 	c #1B77BB",
"' 	c #1A76BA",
") 	c #1A75B9",
"! 	c #1A75B8",
"~ 	c #1A74B7",
"{ 	c #1974B7",
"] 	c #1973B6",
"^ 	c #E1D8C9",
"/ 	c #DFD6C6",
"( 	c #DED6C6",
"_ 	c #CCA493",
": 	c #B52613",
"< 	c #D7220F",
"[ 	c #C82411",
"} 	c #B04E3D",
"| 	c #D1C8B9",
"1 	c #DBD2C3",
"2 	c #DED5C5",
"3 	c #DED4C4",
"4 	c #DDD4C3",
"5 	c #E0D6C6",
"6 	c #004064",
"7 	c #1F3E4E",
"8 	c #2088CE",
"9 	c #1E7FC3",
"0 	c #C8766A",
"a 	c #E77769",
"b 	c #1970AD",
"c 	c #1B78BA",
"d 	c #1C7ABE",
"e 	c #1A76B9",
"f 	c #002336",
"g 	c #A7DCF4",
"h 	c #83CCEF",
"i 	c #81CBEE",
"j 	c #DC2F18",
"k 	c #70B1D1",
"l 	c #79C2E5",
"m 	c #7EC9EE",
"n 	c #7CC8EE",
"o 	c #7CC7EE",
"p 	c #7BC7ED",
"q 	c #7AC7ED",
"r 	c #79C5EC",
"s 	c #78C5EC",
"t 	c #77C5EC",
"u 	c #9ED5F1",
"v 	c #52B9E9",
"w 	c #51B8E9",
"x 	c #DE361D",
"y 	c #429DCA",
"z 	c #48ACDD",
"A 	c #49B3E7",
"B 	c #49B1E6",
"C 	c #47B1E6",
"D 	c #46B0E6",
"E 	c #44AFE5",
"F 	c #43AEE5",
"G 	c #42ADE4",
"H 	c #41ACE4",
"I 	c #74C2EC",
"J 	c #81CCEF",
"K 	c #51B8E8",
"L 	c #50B7E8",
"M 	c #E24022",
"N 	c #419DCA",
"O 	c #46AADD",
"P 	c #48B1E6",
"Q 	c #45AFE5",
"R 	c #44AEE5",
"S 	c #42AEE4",
"T 	c #40ACE4",
"U 	c #3FAAE4",
"V 	c #73C1EB",
"W 	c #4FB6E8",
"X 	c #E64828",
"Y 	c #409BC9",
"Z 	c #44A9DC",
"` 	c #3FABE4",
" .	c #3EAAE4",
"..	c #3CA9E3",
"+.	c #72C0EB",
"@.	c #80CAEE",
"#.	c #4EB6E7",
"$.	c #4CB5E7",
"%.	c #E95232",
"&.	c #3E9AC9",
"*.	c #42A7DB",
"=.	c #3DA9E3",
"-.	c #3AA7E2",
";.	c #70C0EA",
">.	c #7FCAEE",
",.	c #4CB4E7",
"'.	c #4BB4E7",
").	c #EA5A39",
"!.	c #3B99C8",
"~.	c #40A6DB",
"{.	c #3AA8E2",
"].	c #39A7E2",
"^.	c #38A6E2",
"/.	c #6EBDEA",
"(.	c #7DC9EE",
"_.	c #4AB3E7",
":.	c #49B2E7",
"<.	c #EC6342",
"[.	c #3A98C7",
"}.	c #3EA5DA",
"|.	c #3BA8E3",
"1.	c #37A5E2",
"2.	c #35A4E2",
"3.	c #6DBDE9",
"4.	c #EE6B49",
"5.	c #3996C7",
"6.	c #3CA4DA",
"7.	c #36A4E2",
"8.	c #35A4E1",
"9.	c #33A2E1",
"0.	c #6BBBE9",
"a.	c #47B0E6",
"b.	c #EF7251",
"c.	c #3695C7",
"d.	c #39A2D9",
"e.	c #34A3E1",
"f.	c #32A1E0",
"g.	c #31A1E0",
"h.	c #69BAE8",
"i.	c #7AC6EC",
"j.	c #43AEE4",
"k.	c #F07958",
"l.	c #3494C7",
"m.	c #37A1D8",
"n.	c #30A0E0",
"o.	c #2F9FDF",
"p.	c #67B9E8",
"q.	c #F17F5D",
"r.	c #3392C6",
"s.	c #369FD8",
"t.	c #2E9FDF",
"u.	c #2D9DDF",
"v.	c #66B8E8",
"w.	c #77C4EC",
"x.	c #F28462",
"y.	c #3090C6",
"z.	c #349DD8",
"A.	c #35A3E1",
"B.	c #2D9EDF",
"C.	c #2C9DDF",
"D.	c #2A9CDE",
"E.	c #65B7E7",
"F.	c #F28664",
"G.	c #2E8FC5",
"H.	c #329CD7",
"I.	c #2A9CDF",
"J.	c #299BDE",
"K.	c #289ADD",
"L.	c #64B5E6",
"M.	c #2D8EC5",
"N.	c #309AD6",
"O.	c #2B9CDF",
"P.	c #2898DD",
"Q.	c #63B4E6",
"R.	c #2B8DC4",
"S.	c #2D98D5",
"T.	c #2899DD",
"U.	c #2797DD",
"V.	c #2696DC",
"W.	c #62B3E5",
"X.	c #CD573D",
"Y.	c #298BC3",
"Z.	c #2B97D5",
"`.	c #2797DC",
" +	c #2695DB",
".+	c #2594DA",
"++	c #61B0E4",
"@+	c #6FBDEA",
"#+	c #278AC4",
"$+	c #2895D5",
"%+	c #2696DB",
"&+	c #2595DB",
"*+	c #2593DA",
"=+	c #2492DA",
"-+	c #60AFE4",
";+	c #32A2E1",
">+	c #2A90CA",
",+	c #288EC8",
"'+	c #268DC9",
")+	c #2896D6",
"!+	c #2697DC",
"~+	c #2391DA",
"{+	c #238FD9",
"]+	c #60AEE3",
"^+	c #2C9BDB",
"/+	c #2A96D5",
"(+	c #2996D7",
"_+	c #2693D3",
":+	c #2795D9",
"<+	c #2390D9",
"[+	c #238FD8",
"}+	c #228ED8",
"|+	c #5FADE3",
"1+	c #2B9BDE",
"2+	c #2A9ADB",
"3+	c #2999DD",
"4+	c #2898DC",
"5+	c #2795DA",
"6+	c #218DD8",
"7+	c #218DD7",
"8+	c #5EABE2",
"9+	c #208CD7",
"0+	c #208AD6",
"a+	c #5EABE1",
"b+	c #299ADE",
"c+	c #228FD8",
"d+	c #208BD7",
"e+	c #1F89D5",
"f+	c #5DA9E1",
"g+	c #1F88D5",
"h+	c #1E88D5",
"i+	c #5CA8E1",
"j+	c #91CBEE",
"k+	c #62B4E6",
"l+	c #62B2E4",
"m+	c #60B0E4",
"n+	c #60AEE4",
"o+	c #5FADE2",
"p+	c #5DAAE1",
"q+	c #5DA8E1",
"r+	c #5CA8E0",
"s+	c #8BC0E9",
"t+	c #1F3647",
"u+	c #1D7FC4",
"v+	c #1D7EC3",
"w+	c #1D7DC1",
"x+	c #1C7CC0",
"y+	c #1C7BBF",
"                                                                ",
"                                                                ",
"        . + @ # $ % & * * * = - ; ; > , ' ) ! ~ { ]             ",
"        + + ^ / / ( _ : < [ } | 1 2 2 2 3 3 4 4 5 ]             ",
"        + 6 6 7 8 # 9 0 a a 0 b c d ; > , ' e ! ~ { ]           ",
"        + 6 6 f g h i * j j * k l m n o p q r s t u ]           ",
"        + 6 6 f h v w * x x * y z A B C D E F G H I ]           ",
"        + 6 6 f J K L * M M * N O P C Q R S H T U V ]           ",
"        + 6 6 f i W W * X X * Y Z D E F G H `  ...+.]           ",
"        + 6 6 f @.#.$.* %.%.* &.*.R S H T U =...-.;.]           ",
"        + 6 6 f >.,.'.* ).).* !.~.G H `  ...{.].^./.]           ",
"        + 6 6 f (._.:.* <.<.* [.}.T U =.|.-.].1.2.3.]           ",
"        + 6 6 f o B C * 4.4.* 5.6.=...{.].^.7.8.9.0.]           ",
"        + 6 6 f p a.Q * b.b.* c.d.|.-.].1.2.e.f.g.h.]           ",
"        + 6 6 f i.R j.* k.k.* l.m.].1.7.8.9.f.n.o.p.]           ",
"        + 6 6 f s G H * q.q.* r.s.1.2.e.f.g.o.t.u.v.]           ",
"        + 6 6 f w.T ` * x.x.* y.z.A.9.f.n.o.B.C.D.E.]           ",
"        + 6 6 f I  ...* F.F.* G.H.f.g.o.t.u.I.J.K.L.]           ",
"        + 6 6 f V ..-.* F.F.* M.N.n.o.B.O.D.J.K.P.Q.]           ",
"        + 6 6 f +.-.^.* F.F.* R.S.t.C.I.J.K.T.U.V.W.]           ",
"        + 6 6 f ;.1.7.* X.X.* Y.Z.O.D.J.K.P.`. +.+++]           ",
"        + 6 6 f @+8.e.* * * * #+$+J.K.P.`.%+&+*+=+-+]           ",
"        + 6 6 f 3.;+g.* >+,+* '+)+T.U.!+&+.+=+~+{+]+]           ",
"        + 6 6 f 0.g.o.^+/+(+)+_+:+`.%+&+*+=+<+[+}+|+]           ",
"        + 6 6 f h.t.B.1+2+3+4+5+%+&+.+=+~+{+[+6+7+8+]           ",
"        + 6 6 f p.C.I.J.K.P.`.%+&+*+=+<+[+}+6+9+0+a+]           ",
"        + 6 6 f v.D.b+T.U.!+&+.+=+~+{+c+6+7+d+0+e+f+]           ",
"        + 6 6 f E.K.P.`.%+&+*+=+<+[+}+6+9+0+0+g+h+i+]           ",
"        + 6 6 f j+Q.k+W.l+++m+n+]+|+o+a+a+p+f+q+r+s+]           ",
"        . + + t+8 # $ % u+v+w+x+y+d ; > , ' e ! ~ { ]           ",
"                                                                ",
"                                                                "};
